<mxfile host="drawio-plugin" modified="2023-05-20T10:35:45.095Z" agent="5.0 (Windows NT 6.2; Win64; x64) AppleWebKit/537.36 (KHTML, like Gecko) Chrome/104.0.5112.102 Safari/537.36" etag="-iH7MPB3OI4i1EPzRqJU" version="20.5.3" type="embed"><diagram id="3LJVibS9Pq_KalHf28YM" name="dataStructures"><mxGraphModel dx="2633" dy="1360" grid="1" gridSize="10" guides="1" tooltips="1" connect="1" arrows="1" fold="1" page="1" pageScale="1" pageWidth="850" pageHeight="1100" background="none" math="0" shadow="0"><root><mxCell id="0"/><mxCell id="1" parent="0"/><mxCell id="2" value="Classification of Data Structure" style="text;strokeColor=none;align=center;fillColor=none;html=1;verticalAlign=middle;whiteSpace=wrap;rounded=0;glass=0;fontSize=17;labelBackgroundColor=none;fontStyle=1;" parent="1" vertex="1"><mxGeometry x="714.5" y="170" width="265" height="30" as="geometry"/></mxCell><mxCell id="8" style="edgeStyle=none;html=1;verticalAlign=middle;" parent="1" source="5" target="6" edge="1"><mxGeometry relative="1" as="geometry"/></mxCell><mxCell id="9" style="edgeStyle=none;html=1;verticalAlign=middle;" parent="1" source="5" target="7" edge="1"><mxGeometry relative="1" as="geometry"/></mxCell><mxCell id="5" value="Data Structure" style="whiteSpace=wrap;html=1;verticalAlign=middle;" parent="1" vertex="1"><mxGeometry x="786.5" y="230" width="120" height="40" as="geometry"/></mxCell><mxCell id="14" style="edgeStyle=none;html=1;verticalAlign=middle;" parent="1" source="6" target="10" edge="1"><mxGeometry relative="1" as="geometry"/></mxCell><mxCell id="16" value="" style="edgeStyle=none;html=1;verticalAlign=middle;" parent="1" source="6" target="15" edge="1"><mxGeometry relative="1" as="geometry"/></mxCell><mxCell id="6" value="Linear Data Structure" style="whiteSpace=wrap;html=1;verticalAlign=middle;" parent="1" vertex="1"><mxGeometry x="20" y="430" width="120" height="40" as="geometry"/></mxCell><mxCell id="18" value="" style="edgeStyle=none;html=1;verticalAlign=middle;" parent="1" source="7" target="17" edge="1"><mxGeometry relative="1" as="geometry"/></mxCell><mxCell id="20" value="" style="edgeStyle=none;html=1;verticalAlign=middle;" parent="1" source="7" target="19" edge="1"><mxGeometry relative="1" as="geometry"/></mxCell><mxCell id="64" value="" style="edgeStyle=none;html=1;verticalAlign=middle;" parent="1" source="7" target="63" edge="1"><mxGeometry relative="1" as="geometry"/></mxCell><mxCell id="68" value="" style="edgeStyle=none;html=1;exitX=1;exitY=1;exitDx=0;exitDy=0;verticalAlign=middle;" parent="1" source="53" target="67" edge="1"><mxGeometry relative="1" as="geometry"/></mxCell><mxCell id="77" value="" style="edgeStyle=none;html=1;verticalAlign=middle;exitX=0.333;exitY=1.031;exitDx=0;exitDy=0;exitPerimeter=0;" parent="1" source="7" target="76" edge="1"><mxGeometry relative="1" as="geometry"/></mxCell><mxCell id="7" value="Non - Linear Data Structure" style="whiteSpace=wrap;html=1;verticalAlign=middle;" parent="1" vertex="1"><mxGeometry x="1585" y="430" width="165" height="40" as="geometry"/></mxCell><mxCell id="22" value="" style="edgeStyle=none;html=1;verticalAlign=middle;" parent="1" source="10" target="21" edge="1"><mxGeometry relative="1" as="geometry"/></mxCell><mxCell id="34" value="" style="edgeStyle=none;html=1;verticalAlign=middle;" parent="1" source="10" target="33" edge="1"><mxGeometry relative="1" as="geometry"/></mxCell><mxCell id="73" value="" style="edgeStyle=none;html=1;verticalAlign=middle;" parent="1" source="10" target="72" edge="1"><mxGeometry relative="1" as="geometry"/></mxCell><mxCell id="10" value="Static Data Structure" style="whiteSpace=wrap;html=1;verticalAlign=middle;" parent="1" vertex="1"><mxGeometry x="-270" y="565" width="120" height="40" as="geometry"/></mxCell><mxCell id="24" value="" style="edgeStyle=none;html=1;entryX=0.5;entryY=0;entryDx=0;entryDy=0;verticalAlign=middle;" parent="1" source="15" target="23" edge="1"><mxGeometry relative="1" as="geometry"/></mxCell><mxCell id="26" value="" style="edgeStyle=none;html=1;entryX=0.5;entryY=0;entryDx=0;entryDy=0;exitX=0.713;exitY=1;exitDx=0;exitDy=0;exitPerimeter=0;verticalAlign=middle;" parent="1" source="15" target="25" edge="1"><mxGeometry relative="1" as="geometry"/></mxCell><mxCell id="28" value="" style="edgeStyle=none;html=1;entryX=0.5;entryY=0;entryDx=0;entryDy=0;exitX=0.25;exitY=1;exitDx=0;exitDy=0;verticalAlign=middle;" parent="1" source="15" target="27" edge="1"><mxGeometry relative="1" as="geometry"/></mxCell><mxCell id="30" value="" style="edgeStyle=none;html=1;verticalAlign=middle;" parent="1" source="15" target="29" edge="1"><mxGeometry relative="1" as="geometry"/></mxCell><mxCell id="54" value="" style="edgeStyle=none;html=1;exitX=0.284;exitY=0.988;exitDx=0;exitDy=0;entryX=0.5;entryY=0;entryDx=0;entryDy=0;exitPerimeter=0;verticalAlign=middle;" parent="1" source="7" target="53" edge="1"><mxGeometry relative="1" as="geometry"/></mxCell><mxCell id="15" value="Dynamic Data Structure" style="whiteSpace=wrap;html=1;verticalAlign=middle;" parent="1" vertex="1"><mxGeometry x="326" y="565" width="150" height="40" as="geometry"/></mxCell><mxCell id="88" value="" style="edgeStyle=none;html=1;verticalAlign=middle;" parent="1" source="17" target="87" edge="1"><mxGeometry relative="1" as="geometry"/></mxCell><mxCell id="90" value="" style="edgeStyle=none;html=1;verticalAlign=middle;" parent="1" source="17" target="89" edge="1"><mxGeometry relative="1" as="geometry"/></mxCell><mxCell id="92" value="" style="edgeStyle=none;html=1;verticalAlign=middle;" parent="1" source="17" target="91" edge="1"><mxGeometry relative="1" as="geometry"/></mxCell><mxCell id="94" value="" style="edgeStyle=none;html=1;verticalAlign=middle;" parent="1" source="17" target="93" edge="1"><mxGeometry relative="1" as="geometry"/></mxCell><mxCell id="17" value="Trees" style="whiteSpace=wrap;html=1;verticalAlign=middle;" parent="1" vertex="1"><mxGeometry x="1460" y="675" width="50" height="40" as="geometry"/></mxCell><mxCell id="103" value="" style="edgeStyle=none;html=1;verticalAlign=middle;" parent="1" source="19" target="102" edge="1"><mxGeometry relative="1" as="geometry"/></mxCell><mxCell id="105" value="" style="edgeStyle=none;html=1;verticalAlign=middle;" parent="1" source="19" target="104" edge="1"><mxGeometry relative="1" as="geometry"/></mxCell><mxCell id="107" value="" style="edgeStyle=none;html=1;verticalAlign=middle;" parent="1" source="19" target="106" edge="1"><mxGeometry relative="1" as="geometry"/></mxCell><mxCell id="19" value="Graphs" style="whiteSpace=wrap;html=1;verticalAlign=middle;" parent="1" vertex="1"><mxGeometry x="2083" y="675" width="60" height="40" as="geometry"/></mxCell><mxCell id="21" value="Arrays" style="whiteSpace=wrap;html=1;verticalAlign=middle;" parent="1" vertex="1"><mxGeometry x="-280" y="790" width="60" height="40" as="geometry"/></mxCell><mxCell id="37" value="" style="edgeStyle=none;html=1;entryX=0;entryY=0;entryDx=0;entryDy=0;verticalAlign=middle;" parent="1" source="23" target="49" edge="1"><mxGeometry relative="1" as="geometry"><mxPoint x="-150" y="787.3529411764705" as="targetPoint"/></mxGeometry></mxCell><mxCell id="39" value="" style="edgeStyle=none;html=1;verticalAlign=middle;" parent="1" source="23" target="38" edge="1"><mxGeometry relative="1" as="geometry"/></mxCell><mxCell id="46" value="" style="edgeStyle=none;html=1;verticalAlign=middle;" parent="1" source="23" target="45" edge="1"><mxGeometry relative="1" as="geometry"/></mxCell><mxCell id="62" value="" style="edgeStyle=none;html=1;verticalAlign=middle;" parent="1" source="23" target="61" edge="1"><mxGeometry relative="1" as="geometry"/></mxCell><mxCell id="23" value="Queue" style="whiteSpace=wrap;html=1;verticalAlign=middle;" parent="1" vertex="1"><mxGeometry x="30" y="675" width="60" height="40" as="geometry"/></mxCell><mxCell id="25" value="Stack" style="whiteSpace=wrap;html=1;verticalAlign=middle;" parent="1" vertex="1"><mxGeometry x="509.5" y="675" width="55" height="40" as="geometry"/></mxCell><mxCell id="48" value="" style="edgeStyle=none;html=1;verticalAlign=middle;" parent="1" source="27" target="47" edge="1"><mxGeometry relative="1" as="geometry"/></mxCell><mxCell id="50" value="" style="edgeStyle=none;html=1;verticalAlign=middle;" parent="1" source="27" target="49" edge="1"><mxGeometry relative="1" as="geometry"/></mxCell><mxCell id="69" style="edgeStyle=none;html=1;entryX=0.5;entryY=0;entryDx=0;entryDy=0;verticalAlign=middle;" parent="1" source="27" target="51" edge="1"><mxGeometry relative="1" as="geometry"/></mxCell><mxCell id="71" value="" style="edgeStyle=none;html=1;verticalAlign=middle;" parent="1" source="27" target="70" edge="1"><mxGeometry relative="1" as="geometry"/></mxCell><mxCell id="27" value="List" style="whiteSpace=wrap;html=1;verticalAlign=middle;" parent="1" vertex="1"><mxGeometry x="343" y="675" width="40" height="40" as="geometry"/></mxCell><mxCell id="31" value="" style="edgeStyle=none;html=1;verticalAlign=middle;" parent="1" source="29" target="15" edge="1"><mxGeometry relative="1" as="geometry"/></mxCell><mxCell id="32" style="edgeStyle=none;html=1;verticalAlign=middle;" parent="1" source="29" target="15" edge="1"><mxGeometry relative="1" as="geometry"/></mxCell><mxCell id="29" value="A non-contiguous memory location" style="whiteSpace=wrap;html=1;fillColor=#d80073;fontColor=#ffffff;strokeColor=#A50040;fontSize=16;verticalAlign=middle;" parent="1" vertex="1"><mxGeometry x="355" y="485" width="290" height="40" as="geometry"/></mxCell><mxCell id="35" style="edgeStyle=none;html=1;verticalAlign=middle;" parent="1" source="33" target="10" edge="1"><mxGeometry relative="1" as="geometry"/></mxCell><mxCell id="33" value="&lt;span style=&quot;font-size: 16px;&quot;&gt;Contiguous memory location&lt;/span&gt;" style="whiteSpace=wrap;html=1;fillColor=#d80073;fontColor=#ffffff;strokeColor=#A50040;verticalAlign=middle;" parent="1" vertex="1"><mxGeometry x="-450" y="475" width="220" height="40" as="geometry"/></mxCell><mxCell id="38" value="PrioratyQueue" style="whiteSpace=wrap;html=1;verticalAlign=middle;" parent="1" vertex="1"><mxGeometry x="-130" y="790" width="100" height="40" as="geometry"/></mxCell><mxCell id="45" value="ArrayQueue" style="whiteSpace=wrap;html=1;verticalAlign=middle;" parent="1" vertex="1"><mxGeometry x="-21" y="790" width="80" height="40" as="geometry"/></mxCell><mxCell id="47" value="ArrayList" style="whiteSpace=wrap;html=1;verticalAlign=middle;" parent="1" vertex="1"><mxGeometry x="400" y="790" width="70" height="40" as="geometry"/></mxCell><mxCell id="49" value="LinkedList" style="whiteSpace=wrap;html=1;verticalAlign=middle;" parent="1" vertex="1"><mxGeometry x="160" y="750" width="70" height="40" as="geometry"/></mxCell><mxCell id="51" value="Vector" style="whiteSpace=wrap;html=1;verticalAlign=middle;" parent="1" vertex="1"><mxGeometry x="480" y="790" width="40" height="40" as="geometry"/></mxCell><mxCell id="56" value="" style="edgeStyle=none;html=1;verticalAlign=middle;" parent="1" source="53" target="55" edge="1"><mxGeometry relative="1" as="geometry"/></mxCell><mxCell id="60" value="" style="edgeStyle=none;html=1;verticalAlign=middle;" parent="1" source="53" target="59" edge="1"><mxGeometry relative="1" as="geometry"/></mxCell><mxCell id="53" value="Sets" style="whiteSpace=wrap;html=1;verticalAlign=middle;" parent="1" vertex="1"><mxGeometry x="645" y="675" width="42.5" height="40" as="geometry"/></mxCell><mxCell id="55" value="HashSet" style="whiteSpace=wrap;html=1;verticalAlign=middle;" parent="1" vertex="1"><mxGeometry x="537" y="790" width="70" height="40" as="geometry"/></mxCell><mxCell id="59" value="LinkedHashSet" style="whiteSpace=wrap;html=1;verticalAlign=middle;" parent="1" vertex="1"><mxGeometry x="616" y="790" width="100" height="40" as="geometry"/></mxCell><mxCell id="61" value="Deque" style="whiteSpace=wrap;html=1;verticalAlign=middle;" parent="1" vertex="1"><mxGeometry x="70" y="790" width="60" height="40" as="geometry"/></mxCell><mxCell id="96" value="" style="edgeStyle=none;html=1;verticalAlign=middle;" parent="1" source="63" target="95" edge="1"><mxGeometry relative="1" as="geometry"/></mxCell><mxCell id="98" value="" style="edgeStyle=none;html=1;verticalAlign=middle;" parent="1" source="63" target="97" edge="1"><mxGeometry relative="1" as="geometry"/></mxCell><mxCell id="99" value="" style="edgeStyle=none;html=1;verticalAlign=middle;" parent="1" source="63" target="97" edge="1"><mxGeometry relative="1" as="geometry"/></mxCell><mxCell id="101" value="" style="edgeStyle=none;html=1;verticalAlign=middle;" parent="1" source="63" target="100" edge="1"><mxGeometry relative="1" as="geometry"/></mxCell><mxCell id="63" value="Heaps" style="whiteSpace=wrap;html=1;verticalAlign=middle;" parent="1" vertex="1"><mxGeometry x="1777" y="675" width="50" height="40" as="geometry"/></mxCell><mxCell id="65" value="Hash Tables" style="whiteSpace=wrap;html=1;verticalAlign=middle;" parent="1" vertex="1"><mxGeometry x="1110" y="790" width="80" height="40" as="geometry"/></mxCell><mxCell id="67" value="TreeSets" style="whiteSpace=wrap;html=1;verticalAlign=middle;" parent="1" vertex="1"><mxGeometry x="725" y="790" width="70" height="40" as="geometry"/></mxCell><mxCell id="70" value="CoppyOnWriteArrayList" style="whiteSpace=wrap;html=1;verticalAlign=middle;" parent="1" vertex="1"><mxGeometry x="250" y="790" width="140" height="40" as="geometry"/></mxCell><mxCell id="72" value="2DArrays" style="whiteSpace=wrap;html=1;verticalAlign=middle;" parent="1" vertex="1"><mxGeometry x="-210" y="790" width="70" height="40" as="geometry"/></mxCell><mxCell id="82" value="" style="edgeStyle=none;html=1;verticalAlign=middle;exitX=0.5;exitY=1;exitDx=0;exitDy=0;" parent="1" source="78" target="81" edge="1"><mxGeometry relative="1" as="geometry"/></mxCell><mxCell id="111" value="" style="edgeStyle=orthogonalEdgeStyle;rounded=0;orthogonalLoop=1;jettySize=auto;html=1;" parent="1" source="76" target="110" edge="1"><mxGeometry relative="1" as="geometry"/></mxCell><mxCell id="116" style="edgeStyle=orthogonalEdgeStyle;rounded=0;orthogonalLoop=1;jettySize=auto;html=1;" parent="1" source="76" target="78" edge="1"><mxGeometry relative="1" as="geometry"/></mxCell><mxCell id="117" style="edgeStyle=orthogonalEdgeStyle;rounded=0;orthogonalLoop=1;jettySize=auto;html=1;entryX=0.5;entryY=0;entryDx=0;entryDy=0;" parent="1" source="76" target="85" edge="1"><mxGeometry relative="1" as="geometry"/></mxCell><mxCell id="118" style="edgeStyle=orthogonalEdgeStyle;rounded=0;orthogonalLoop=1;jettySize=auto;html=1;" parent="1" source="76" target="83" edge="1"><mxGeometry relative="1" as="geometry"/></mxCell><mxCell id="119" style="edgeStyle=orthogonalEdgeStyle;rounded=0;orthogonalLoop=1;jettySize=auto;html=1;entryX=0.5;entryY=0;entryDx=0;entryDy=0;" parent="1" source="76" target="65" edge="1"><mxGeometry relative="1" as="geometry"/></mxCell><mxCell id="76" value="Map" style="whiteSpace=wrap;html=1;verticalAlign=middle;" parent="1" vertex="1"><mxGeometry x="1041" y="675" width="57.5" height="40" as="geometry"/></mxCell><mxCell id="78" value="HashMap" style="whiteSpace=wrap;html=1;verticalAlign=middle;" parent="1" vertex="1"><mxGeometry x="817" y="790" width="60" height="40" as="geometry"/></mxCell><mxCell id="81" value="LinkedHashMap" style="whiteSpace=wrap;html=1;verticalAlign=middle;" parent="1" vertex="1"><mxGeometry x="797" y="920" width="100" height="40" as="geometry"/></mxCell><mxCell id="83" value="TreeMap" style="whiteSpace=wrap;html=1;verticalAlign=middle;" parent="1" vertex="1"><mxGeometry x="1040" y="790" width="60" height="40" as="geometry"/></mxCell><mxCell id="85" value="ConcurrentHashMap" style="whiteSpace=wrap;html=1;verticalAlign=middle;" parent="1" vertex="1"><mxGeometry x="903" y="790" width="120" height="40" as="geometry"/></mxCell><mxCell id="87" value="Binary Search Tree" style="whiteSpace=wrap;html=1;verticalAlign=middle;" parent="1" vertex="1"><mxGeometry x="1280" y="790" width="110" height="40" as="geometry"/></mxCell><mxCell id="89" value="AVL Tree" style="whiteSpace=wrap;html=1;verticalAlign=middle;" parent="1" vertex="1"><mxGeometry x="1410" y="790" width="60" height="40" as="geometry"/></mxCell><mxCell id="91" value="Red Back Tree" style="whiteSpace=wrap;html=1;verticalAlign=middle;" parent="1" vertex="1"><mxGeometry x="1482" y="790" width="90" height="40" as="geometry"/></mxCell><mxCell id="93" value="B Tree" style="whiteSpace=wrap;html=1;verticalAlign=middle;" parent="1" vertex="1"><mxGeometry x="1585" y="790" width="50" height="40" as="geometry"/></mxCell><mxCell id="95" value="Binary Heap" style="whiteSpace=wrap;html=1;verticalAlign=middle;" parent="1" vertex="1"><mxGeometry x="1665" y="790" width="70" height="40" as="geometry"/></mxCell><mxCell id="97" value="Fibonacci Heap" style="whiteSpace=wrap;html=1;verticalAlign=middle;" parent="1" vertex="1"><mxGeometry x="1757" y="790" width="90" height="40" as="geometry"/></mxCell><mxCell id="100" value="Pairing Heap" style="whiteSpace=wrap;html=1;verticalAlign=middle;" parent="1" vertex="1"><mxGeometry x="1861" y="790" width="80" height="40" as="geometry"/></mxCell><mxCell id="102" value="Adjacency Matrix" style="whiteSpace=wrap;html=1;verticalAlign=middle;" parent="1" vertex="1"><mxGeometry x="1958" y="790" width="100" height="40" as="geometry"/></mxCell><mxCell id="104" value="Adjacency List" style="whiteSpace=wrap;html=1;verticalAlign=middle;" parent="1" vertex="1"><mxGeometry x="2068" y="790" width="90" height="40" as="geometry"/></mxCell><mxCell id="106" value="Edge List" style="whiteSpace=wrap;html=1;verticalAlign=middle;" parent="1" vertex="1"><mxGeometry x="2170" y="790" width="60" height="40" as="geometry"/></mxCell><mxCell id="108" value="&lt;i style=&quot;font-size: 14px;&quot;&gt;Note: This tree chart may contain errors and omissions, only recommended for reference&lt;/i&gt;" style="text;html=1;strokeColor=none;fillColor=none;align=center;verticalAlign=middle;whiteSpace=wrap;rounded=0;fontSize=14;" parent="1" vertex="1"><mxGeometry x="979.5" y="170" width="600" height="30" as="geometry"/></mxCell><mxCell id="113" value="" style="edgeStyle=orthogonalEdgeStyle;rounded=0;orthogonalLoop=1;jettySize=auto;html=1;" parent="1" source="110" target="112" edge="1"><mxGeometry relative="1" as="geometry"/></mxCell><mxCell id="110" value="SortedMap" style="whiteSpace=wrap;html=1;verticalAlign=middle;" parent="1" vertex="1"><mxGeometry x="1200" y="790" width="70" height="40" as="geometry"/></mxCell><mxCell id="115" value="" style="edgeStyle=orthogonalEdgeStyle;rounded=0;orthogonalLoop=1;jettySize=auto;html=1;" parent="1" source="112" target="114" edge="1"><mxGeometry relative="1" as="geometry"/></mxCell><mxCell id="112" value="NaviagableMap" style="whiteSpace=wrap;html=1;verticalAlign=middle;" parent="1" vertex="1"><mxGeometry x="1185" y="920" width="100" height="40" as="geometry"/></mxCell><mxCell id="114" value="TreeMap" style="whiteSpace=wrap;html=1;verticalAlign=middle;" parent="1" vertex="1"><mxGeometry x="1202.5" y="1040" width="65" height="40" as="geometry"/></mxCell><mxCell id="123" style="edgeStyle=orthogonalEdgeStyle;rounded=0;orthogonalLoop=1;jettySize=auto;html=1;" parent="1" source="120" target="78" edge="1"><mxGeometry relative="1" as="geometry"/></mxCell><mxCell id="120" value="Null Allowed" style="text;html=1;align=center;verticalAlign=middle;resizable=0;points=[];autosize=1;strokeColor=none;fillColor=none;" parent="1" vertex="1"><mxGeometry x="860" y="720" width="90" height="30" as="geometry"/></mxCell><mxCell id="122" style="edgeStyle=orthogonalEdgeStyle;rounded=0;orthogonalLoop=1;jettySize=auto;html=1;" parent="1" source="121" target="65" edge="1"><mxGeometry relative="1" as="geometry"/></mxCell><mxCell id="121" value="Null not allowed" style="text;html=1;align=center;verticalAlign=middle;resizable=0;points=[];autosize=1;strokeColor=none;fillColor=none;" parent="1" vertex="1"><mxGeometry x="1095" y="860" width="110" height="30" as="geometry"/></mxCell><mxCell id="134" style="edgeStyle=orthogonalEdgeStyle;rounded=0;orthogonalLoop=1;jettySize=auto;html=1;entryX=1;entryY=0.5;entryDx=0;entryDy=0;" parent="1" source="124" target="81" edge="1"><mxGeometry relative="1" as="geometry"/></mxCell><mxCell id="124" value="Null Aloowed" style="text;html=1;align=center;verticalAlign=middle;resizable=0;points=[];autosize=1;strokeColor=none;fillColor=none;" parent="1" vertex="1"><mxGeometry x="873" y="960" width="90" height="30" as="geometry"/></mxCell><mxCell id="125" value="Doubly LinkedListed based impl" style="text;html=1;align=center;verticalAlign=middle;resizable=0;points=[];autosize=1;strokeColor=none;fillColor=none;" parent="1" vertex="1"><mxGeometry x="872" y="980" width="190" height="30" as="geometry"/></mxCell><mxCell id="126" value="Slow" style="text;html=1;align=center;verticalAlign=middle;resizable=0;points=[];autosize=1;strokeColor=none;fillColor=none;" parent="1" vertex="1"><mxGeometry x="870" y="1001" width="50" height="30" as="geometry"/></mxCell><mxCell id="128" value="&amp;nbsp;Synchronised" style="text;html=1;align=center;verticalAlign=middle;resizable=0;points=[];autosize=1;strokeColor=none;fillColor=none;" parent="1" vertex="1"><mxGeometry x="1092" y="880" width="100" height="30" as="geometry"/></mxCell><mxCell id="132" style="edgeStyle=orthogonalEdgeStyle;rounded=0;orthogonalLoop=1;jettySize=auto;html=1;" parent="1" source="129" target="114" edge="1"><mxGeometry relative="1" as="geometry"/></mxCell><mxCell id="129" value="Sorted" style="text;html=1;align=center;verticalAlign=middle;resizable=0;points=[];autosize=1;strokeColor=none;fillColor=none;" parent="1" vertex="1"><mxGeometry x="1310" y="1031" width="60" height="30" as="geometry"/></mxCell><mxCell id="130" value="Null not allowed" style="text;html=1;align=center;verticalAlign=middle;resizable=0;points=[];autosize=1;strokeColor=none;fillColor=none;" parent="1" vertex="1"><mxGeometry x="1310" y="1050" width="110" height="30" as="geometry"/></mxCell></root></mxGraphModel></diagram></mxfile>